<?xml version="1.0" standalone="no"?>
<!DOCTYPE svg PUBLIC "-//W3C//DTD SVG 20010904//EN"
 "http://www.w3.org/TR/2001/REC-SVG-20010904/DTD/svg10.dtd">
<svg version="1.0" xmlns="http://www.w3.org/2000/svg"
 width="300.000000pt" height="300.000000pt" viewBox="0 0 300.000000 300.000000"
 preserveAspectRatio="xMidYMid meet">
<metadata>
Created by potrace 1.11, written by Peter Selinger 2001-2013
</metadata>
<g transform="translate(0.000000,300.000000) scale(0.100000,-0.100000)"
fill="#000000" stroke="none">
<path d="M1945 2976 c-46 -14 -105 -45 -90 -46 61 -7 104 -29 139 -70 26 -31
30 -48 27 -104 -5 -103 -115 -169 -251 -153 -92 11 -161 64 -188 144 -10 30
-8 135 3 153 3 4 -12 4 -33 0 -20 -5 -48 -11 -62 -14 -125 -23 -200 -40 -201
-45 0 -3 -2 -249 -4 -546 -2 -511 -3 -544 -23 -617 -59 -218 -185 -342 -398
-394 -108 -27 -343 -24 -459 6 -49 12 -98 27 -108 32 -26 14 -29 6 -18 -43 5
-24 15 -71 21 -104 l12 -60 481 0 482 0 1 -120 c1 -66 -2 -125 -5 -131 -6 -11
-31 -42 -137 -168 -28 -34 -165 -198 -304 -366 l-253 -305 144 -3 c90 -2 159
1 184 9 53 15 119 63 149 110 38 57 73 168 75 240 1 25 3 25 71 25 l70 0 0
-204 0 -204 28 6 c15 4 38 8 52 11 74 14 81 18 127 78 26 34 51 67 56 72 4 6
148 192 318 415 171 223 318 414 327 425 10 11 37 47 62 80 25 33 47 62 50 65
3 3 24 31 48 63 31 42 39 59 29 63 -15 5 -391 -3 -422 -9 -131 -30 -204 -66
-261 -131 -49 -56 -85 -150 -88 -234 l-2 -47 -71 -3 -72 -3 2 328 2 328 636 0
c562 0 637 2 634 15 -13 70 -35 190 -38 210 -4 23 -10 26 -64 31 -33 3 -80 16
-105 28 -53 25 -121 91 -139 132 -6 16 -14 29 -18 29 -3 0 -23 -18 -45 -40
-49 -51 -114 -94 -185 -122 -48 -19 -75 -22 -196 -22 -127 0 -146 2 -202 25
-33 14 -75 37 -91 50 -72 58 -113 160 -117 293 -4 167 62 270 209 325 50 18
207 54 296 66 65 9 159 34 195 52 75 38 105 87 105 171 0 103 -32 165 -107
209 -39 23 -58 27 -142 29 -56 1 -112 -3 -136 -10z"/>
<path d="M759 2745 c-3 -3 -109 -25 -235 -50 -126 -25 -248 -55 -271 -66 -56
-27 -127 -107 -147 -166 -18 -52 -20 -127 -7 -188 5 -22 12 -58 15 -80 3 -22
9 -52 12 -66 l5 -27 47 15 c56 17 143 15 194 -5 174 -68 207 -332 53 -427 -40
-25 -58 -30 -111 -29 -37 0 -69 5 -78 13 -42 35 -18 -35 26 -76 47 -44 116
-66 213 -67 79 -1 97 3 145 26 79 39 129 119 146 234 8 50 11 943 3 955 -3 5
-8 7 -10 4z"/>
<path d="M2300 2440 c-8 -5 -61 -28 -117 -50 -106 -43 -177 -94 -195 -139 -37
-97 2 -197 87 -220 94 -25 186 14 225 94 19 40 23 66 26 186 1 76 0 139 -4
139 -4 0 -14 -5 -22 -10z"/>
<path d="M2730 1013 c-36 -47 -72 -93 -80 -103 -75 -91 -571 -742 -568 -745 2
-3 36 2 74 10 38 8 83 16 99 19 17 3 98 19 180 36 83 17 168 33 190 37 125 18
173 64 176 173 l2 50 54 0 c54 0 55 0 49 27 -7 34 -63 345 -71 393 -8 48 -36
184 -38 186 -1 1 -31 -36 -67 -83z"/>
<path d="M417 880 c-65 -20 -65 -15 -26 -220 12 -63 21 -123 21 -132 -1 -34
16 -27 54 20 21 26 41 49 44 52 6 5 204 241 229 273 13 16 5 17 -140 16 -85 0
-167 -5 -182 -9z"/>
</g>
</svg>
