<svg xmlns="http://www.w3.org/2000/svg" width="122" height="30" viewBox="0 0 122 30">
  <defs>
    <style>
      .cls-1 {
        fill: #fff;
        fill-rule: evenodd;
      }
    </style>
  </defs>
  <path id="Coastal_Jazz_Footer_Logo" data-name="Coastal Jazz Footer Logo" class="cls-1" d="M247.169,3115.51a4.538,4.538,0,0,1-3.826-2.13,4.2,4.2,0,0,1-.547-1.29,4.515,4.515,0,0,1,6.984-4.75v-1.94c-0.011-.01-0.034-0.01-0.045-0.02a0.4,0.4,0,0,0-.134-0.06,6.225,6.225,0,0,0-6.783,1.31,6.454,6.454,0,0,0-1.338,1.96A6.171,6.171,0,0,0,241,3111a6.238,6.238,0,0,0,.48,2.39,6.345,6.345,0,0,0,1.327,1.96,6.034,6.034,0,0,0,4.362,1.8,6.538,6.538,0,0,0,2.421-.47,8.671,8.671,0,0,0,.937-0.49v-2.21l-0.167.18a4.429,4.429,0,0,1-3.191,1.35m15.116,1.2a6.465,6.465,0,0,0,1.964-1.34,6.143,6.143,0,0,0,1.8-4.35,6.524,6.524,0,0,0-.48-2.42,6.16,6.16,0,0,0-3.28-3.27,6.26,6.26,0,0,0-4.808,0,6.019,6.019,0,0,0-1.963,1.32,6.637,6.637,0,0,0-1.339,1.95,6.24,6.24,0,0,0,0,4.8,6.348,6.348,0,0,0,1.328,1.96,6.043,6.043,0,0,0,1.963,1.33,6.123,6.123,0,0,0,2.4.48,5.941,5.941,0,0,0,2.421-.46m-6.2-3.27a4.075,4.075,0,0,1-.58-1.35,4.5,4.5,0,0,1,8.065-3.63,4.234,4.234,0,0,1,.737,1.79,4.516,4.516,0,0,1-2.444,4.79,2.949,2.949,0,0,1-.491.21,4.54,4.54,0,0,1-1.494.25,4.484,4.484,0,0,1-3.793-2.06m18.061-8.92-5.277,12.67h1.863l1.038-2.62,0.033-.09h4.708l0.033,0.09,1.038,2.62h1.841Zm1.539,8.49h-3.291l0.079-.2,1.539-3.85,0.134-.34,0.134,0.34,1.539,3.85,0.078,0.2h-0.212Zm11.379,4.11a3.511,3.511,0,0,0,2.733-2.36,2.867,2.867,0,0,0-.033-1.68,3.532,3.532,0,0,0-1.071-1.59c-0.167-.16-0.591-0.56-0.959-0.93l-2.109-2.02a1.276,1.276,0,0,1-.513-1.29,1.308,1.308,0,0,1,1.038-.84,1.649,1.649,0,0,1,.312-0.03,1.887,1.887,0,0,1,1.406.69l1.316-1.06a4.034,4.034,0,0,0-1.562-1.11,3.147,3.147,0,0,0-1.127-.2,3.571,3.571,0,0,0-.658.06,3.228,3.228,0,0,0-1.45.68,2.79,2.79,0,0,0-.893,1.34,2.507,2.507,0,0,0,.034,1.51,3.479,3.479,0,0,0,.937,1.46l1.551,1.46c0.078,0.08,1,.98,1.55,1.5a1.576,1.576,0,0,1,.625,1.58,1.8,1.8,0,0,1-1.45,1.16,1.566,1.566,0,0,1-.435.05,2.244,2.244,0,0,1-.8-0.16,3.051,3.051,0,0,1-1.216-.91l-1.339,1.04a4.8,4.8,0,0,0,1.941,1.46,3.822,3.822,0,0,0,1.45.26,3.208,3.208,0,0,0,.725-0.07m6.047-12.27v1.47h3.48v10.87h1.7v-10.87h3.481v-1.47h-8.657Zm10.286,12.34h1.863l1.037-2.62,0.033-.09h4.708l0.034,0.09,1.037,2.62h1.841l-5.266-12.68Zm5.421-8.23,1.54,3.85,0.078,0.2H306.92l0.078-.2,1.539-3.85,0.134-.34Zm11.334,6.74v-10.85h-1.684v12.34h6.972v-1.49H320.15Zm41.734,3.36H363l-1.149-6.14-3.458,4.36-4.072,5.13,6.4-1.24a1.387,1.387,0,0,0,1.116-1.16,4.309,4.309,0,0,0,.044-0.95m-7.072-7.88c-3.537,0-5.411,1.17-5.411,4.27h-1.472v-6.56h13.186l-0.48-2.55h-0.167a3.133,3.133,0,0,1-3.135-2.01,5.231,5.231,0,0,1-4.34,2.01c-2.677,0-4.339-1.04-4.339-3.94,0-5.35,8.378-2.21,8.378-5.92,0-1.87-1.183-2.49-2.734-2.49a6.026,6.026,0,0,0-.847.05l-0.369.07a3.205,3.205,0,0,0-1,.41v0.06a1.744,1.744,0,0,1,1.774,1.56c0,1.24-1.1,1.79-2.231,1.79a2.207,2.207,0,0,1-2.454-2.11,2.833,2.833,0,0,1,.167-0.99l-3.124.6v9.48c0,4.03-1.907,6.42-6.537,6.42a10.446,10.446,0,0,1-3.949-.69l0.022,0.11,0.38,2.05h9.984v2.5l-7.274,8.5h2.533c3.246,0,3.224-3.88,3.224-3.88h1.473v4.07l1.617-.31,9.907-12.51h-2.778v0.01Zm-1.484-9.09a1.447,1.447,0,0,0,1.606,1.59c1.607,0,2.031-1.19,2.031-2.38v-1.92c-1.35.79-3.637,0.96-3.637,2.71m-19.445-1.29,0.391,2.12a2.889,2.889,0,0,1,1.316-.29,2.492,2.492,0,0,1,2.756,2.48,2.118,2.118,0,0,1-2.109,2.3,1.885,1.885,0,0,1-1.149-.31h-0.033l0.011,0.08c0.468,1.2,1.7,1.52,2.9,1.52,2.187,0,2.945-1.58,2.945-3.8v-8.44l-4.607.89a3.006,3.006,0,0,0-2.465,3.22,1.443,1.443,0,0,1,.044.23m4.173,14.27a2,2,0,0,0-1.451.43l0.659,3.55,3.424-3.97h-2.632v-0.01Z" transform="translate(-241 -3094)"/>
</svg>
