<svg xmlns="http://www.w3.org/2000/svg" width="146" height="36" viewBox="0 0 146 36">
  <defs>
    <style>
      .cls-1 {
        fill: #282828;
        fill-rule: evenodd;
      }
    </style>
  </defs>
  <path id="Coastal_Jazz_Logo" data-name="Coastal Jazz Logo" class="cls-1" d="M37.383,39.821A5.435,5.435,0,0,1,32.8,37.27a5.107,5.107,0,0,1-.654-1.549,5.365,5.365,0,0,1,1.442-5.09,5.392,5.392,0,0,1,6.916-.614V27.692c-0.013-.013-0.04-0.013-0.053-0.026a0.816,0.816,0,0,0-.16-0.067,7.521,7.521,0,0,0-5.768,0,7,7,0,0,0-2.35,1.576,7.652,7.652,0,0,0-1.6,2.351A7.419,7.419,0,0,0,30,34.411a7.5,7.5,0,0,0,.574,2.872,7.7,7.7,0,0,0,1.589,2.351,7.3,7.3,0,0,0,5.22,2.164,7.776,7.776,0,0,0,2.9-.575,9.111,9.111,0,0,0,1.121-.588V37.991c-0.067.066-.134,0.147-0.2,0.214a5.291,5.291,0,0,1-3.818,1.616m18.09,1.443a7.746,7.746,0,0,0,2.35-1.6,7.374,7.374,0,0,0,2.149-5.223,7.332,7.332,0,0,0-4.5-6.826,7.41,7.41,0,0,0-2.884-.574,7.486,7.486,0,0,0-2.87.574,7.274,7.274,0,0,0-2.35,1.576,8,8,0,0,0-1.6,2.351,7.421,7.421,0,0,0-.574,2.886,7.5,7.5,0,0,0,.574,2.872,7.7,7.7,0,0,0,1.589,2.351,7.3,7.3,0,0,0,5.22,2.164,6.988,6.988,0,0,0,2.9-.547M48.05,37.337a4.826,4.826,0,0,1-.694-1.616,5.382,5.382,0,0,1,9.652-4.355,5.078,5.078,0,0,1,.881,2.151,5.415,5.415,0,0,1-2.924,5.744,4.615,4.615,0,0,1-.587.254,5.512,5.512,0,0,1-1.789.294,5.353,5.353,0,0,1-4.539-2.471m21.615-10.7-6.315,15.2h2.23L66.82,38.7l0.04-.107h5.634l0.04,0.107,1.242,3.139h2.2Zm1.842,10.192H67.568l0.094-.24L69.5,31.967l0.16-.414,0.16,0.414,1.842,4.622,0.094,0.24H71.506Zm13.618,4.929a4.223,4.223,0,0,0,3.271-2.832,3.464,3.464,0,0,0-.04-2.017A4.253,4.253,0,0,0,87.073,35c-0.2-.187-0.708-0.668-1.148-1.109L83.4,31.459a1.533,1.533,0,0,1-.614-1.549,1.556,1.556,0,0,1,1.242-1,1.753,1.753,0,0,1,.374-0.04,2.264,2.264,0,0,1,1.682.828l1.575-1.269a4.847,4.847,0,0,0-1.869-1.336,3.935,3.935,0,0,0-1.349-.24,3.844,3.844,0,0,0-.788.08,3.792,3.792,0,0,0-1.736.815,3.31,3.31,0,0,0-1.068,1.6,3.021,3.021,0,0,0,.04,1.817,4.264,4.264,0,0,0,1.121,1.75l1.856,1.75c0.093,0.093,1.2,1.175,1.856,1.8a1.889,1.889,0,0,1,.748,1.9,2.163,2.163,0,0,1-1.736,1.389,2.216,2.216,0,0,1-.521.053,2.677,2.677,0,0,1-.961-0.187,3.591,3.591,0,0,1-1.455-1.1l-1.6,1.256a5.766,5.766,0,0,0,2.323,1.75,4.605,4.605,0,0,0,1.736.307,4.275,4.275,0,0,0,.868-0.08M92.36,27.038V28.8h4.165V41.838h2.029V28.8h4.165V27.038H92.36Zm12.309,14.8h2.23L108.14,38.7l0.04-.107h5.634l0.04,0.107,1.242,3.139h2.2L111,26.623Zm6.488-9.872L113,36.589l0.093,0.24h-4.2l0.093-.24,1.843-4.622,0.16-.414Zm13.565,8.081V27.038h-2.016v14.8h8.344v-1.79h-6.328Zm49.944,4.034H176l-1.375-7.36-4.139,5.223L165.614,48.1l7.663-1.483a1.674,1.674,0,0,0,1.335-1.4,5.1,5.1,0,0,0,.054-1.135M166.2,34.625c-4.232,0-6.475,1.4-6.475,5.13h-1.763V31.886h15.781l-0.575-3.059h-0.2a3.755,3.755,0,0,1-3.751-2.418,6.256,6.256,0,0,1-5.194,2.418c-3.2,0-5.193-1.256-5.193-4.729,0-6.425,10.026-2.658,10.026-7.106,0-2.244-1.415-2.992-3.27-2.992a6.519,6.519,0,0,0-1.015.066l-0.441.08a3.754,3.754,0,0,0-1.2.494v0.067c1.014,0.133,2.122.681,2.122,1.87,0,1.5-1.321,2.151-2.67,2.151-1.588,0-2.937-.922-2.937-2.524a3.375,3.375,0,0,1,.2-1.189l-3.738.721V27.1c0,4.835-2.283,7.708-7.823,7.708a12.526,12.526,0,0,1-4.726-.828l0.026,0.134,0.454,2.458h11.949v2.992l-8.7,10.206h3.03c3.885,0,3.859-4.662,3.859-4.662h1.762V50l1.936-.374,11.855-15.014H166.2v0.013Zm-1.776-10.9a1.736,1.736,0,0,0,1.922,1.91c1.923,0,2.43-1.429,2.43-2.858V20.465c-1.615.948-4.352,1.162-4.352,3.259m-23.27-1.549,0.467,2.538a3.466,3.466,0,0,1,1.576-.347,2.985,2.985,0,0,1,3.3,2.979,2.54,2.54,0,0,1-2.523,2.765,2.231,2.231,0,0,1-1.375-.374h-0.04l0.013,0.094c0.561,1.442,2.029,1.83,3.471,1.83,2.617,0,3.525-1.9,3.525-4.569V16.965l-5.514,1.069a3.6,3.6,0,0,0-2.95,3.861,2.141,2.141,0,0,1,.053.28M146.149,39.3a2.385,2.385,0,0,0-1.735.507l0.787,4.261,4.1-4.756h-3.151V39.3Z" transform="translate(-30 -14)"/>
</svg>
